<svg width="185" height="146" viewBox="0 0 185 146" fill="none" xmlns="http://www.w3.org/2000/svg">
<rect x="109.708" y="106.109" width="12.7093" height="34.5278" rx="6.35466" transform="rotate(90 109.708 106.109)" fill="white"/>
<circle cx="22.7091" cy="16.7091" r="12.7091" stroke="white" stroke-width="7"/>
<path d="M22.3215 29.5258V68.1336" stroke="white" stroke-width="6"/>
<path fill-rule="evenodd" clip-rule="evenodd" d="M26.6359 68.7981C26.6359 48.6397 42.9775 32.2981 63.1359 32.2981H121.753C141.912 32.2981 158.253 48.6397 158.253 68.7981V109.392C158.253 129.55 141.912 145.892 121.753 145.892H63.1358C42.9774 145.892 26.6359 129.55 26.6359 109.392V68.7981ZM63.1359 39.2981C46.8435 39.2981 33.6359 52.5057 33.6359 68.7981V109.392C33.6359 125.684 46.8434 138.892 63.1358 138.892H121.753C138.046 138.892 151.253 125.684 151.253 109.392V68.7981C151.253 52.5057 138.046 39.2981 121.753 39.2981H63.1359Z" fill="white"/>
<rect x="109.437" y="67.6234" width="11.2469" height="35.492" rx="5.62343" transform="rotate(-30 109.437 67.6234)" fill="white"/>
<rect x="135.737" y="66.4371" width="11.2469" height="35.492" rx="5.62343" transform="rotate(60 135.737 66.4371)" fill="white"/>
<rect x="47.437" y="67.6234" width="11.2469" height="35.492" rx="5.62343" transform="rotate(-30 47.437 67.6234)" fill="white"/>
<rect x="73.7371" y="66.4371" width="11.2469" height="35.492" rx="5.62343" transform="rotate(60 73.7371 66.4371)" fill="white"/>
<mask id="mask0_354_87" style="mask-type:alpha" maskUnits="userSpaceOnUse" x="0" y="62" width="27" height="54">
<rect y="62" width="27" height="54" fill="#D9D9D9"/>
</mask>
<g mask="url(#mask0_354_87)">
<path fill-rule="evenodd" clip-rule="evenodd" d="M28.5158 71H27C22.5817 71 19 74.5817 19 79V100.656C19 105.075 22.5817 108.656 27 108.656H28.5158C32.9341 108.656 36.5158 105.075 36.5158 100.656V79C36.5158 74.5817 32.9341 71 28.5158 71ZM27 64C18.7157 64 12 70.7157 12 79V100.656C12 108.941 18.7157 115.656 27 115.656H28.5158C36.8001 115.656 43.5158 108.941 43.5158 100.656V79C43.5158 70.7157 36.8001 64 28.5158 64H27Z" fill="white"/>
</g>
<mask id="mask1_354_87" style="mask-type:alpha" maskUnits="userSpaceOnUse" x="158" y="64" width="27" height="54">
<rect x="158" y="64" width="27" height="54" fill="#D9D9D9"/>
</mask>
<g mask="url(#mask1_354_87)">
<path fill-rule="evenodd" clip-rule="evenodd" d="M157.516 71H156C151.582 71 148 74.5817 148 79V100.656C148 105.075 151.582 108.656 156 108.656H157.516C161.934 108.656 165.516 105.075 165.516 100.656V79C165.516 74.5817 161.934 71 157.516 71ZM156 64C147.716 64 141 70.7157 141 79V100.656C141 108.941 147.716 115.656 156 115.656H157.516C165.8 115.656 172.516 108.941 172.516 100.656V79C172.516 70.7157 165.8 64 157.516 64H156Z" fill="white"/>
</g>
</svg>
