<?xml version="1.0" encoding="UTF-8" standalone="no"?>
<svg
   height="14.001143"
   width="12.001143"
   viewBox="0 0 384.03659 448.03656"
   version="1.1"
   id="svg1"
   sodipodi:docname="icons.svg"
   xml:space="preserve"
   inkscape:version="1.3.1 (91b66b0783, 2023-11-16)"
   xmlns:inkscape="http://www.inkscape.org/namespaces/inkscape"
   xmlns:sodipodi="http://sodipodi.sourceforge.net/DTD/sodipodi-0.dtd"
   xmlns="http://www.w3.org/2000/svg"
   xmlns:svg="http://www.w3.org/2000/svg"><defs
     id="defs1" /><sodipodi:namedview
     id="namedview1"
     pagecolor="#ffffff"
     bordercolor="#000000"
     borderopacity="0.25"
     inkscape:showpageshadow="2"
     inkscape:pageopacity="0.0"
     inkscape:pagecheckerboard="0"
     inkscape:deskcolor="#d1d1d1"
     inkscape:zoom="15.90625"
     inkscape:cx="11.379175"
     inkscape:cy="33.917485"
     inkscape:window-width="1366"
     inkscape:window-height="705"
     inkscape:window-x="-8"
     inkscape:window-y="-8"
     inkscape:window-maximized="1"
     inkscape:current-layer="svg1"><inkscape:page
       x="-2.7425614e-11"
       y="2.9625708e-05"
       width="384.03659"
       height="448.03656"
       id="page5"
       margin="0"
       bleed="0" /></sodipodi:namedview><!--!Font Awesome Free 6.5.1 by @fontawesome - https://fontawesome.com License - https://fontawesome.com/license/free Copyright 2023 Fonticons, Inc.--><path
     opacity="1"
     fill="#1e3050"
     d="m 376.61828,52.518303 c 11.3,-13.6 9.5,-33.8 -4.1,-45.0999995 -13.6,-11.3 -33.8,-9.5 -45.1,4.0999995 l -135.4,162.499967 -135.4,-162.499967 c -11.3,-13.5999995 -31.5,-15.3999995 -45.1,-4.0999995 C -2.0817202,18.718303 -3.8817202,38.918303 7.4182798,52.518303 L 150.31828,224.01827 7.4182798,395.51827 c -11.3,13.6 -9.5,33.8 4.1000002,45.1 13.6,11.3 33.8,9.5 45.1,-4.1 l 135.4,-162.5 135.4,162.5 c 11.3,13.6 31.5,15.4 45.1,4.1 13.6,-11.3 15.4,-31.5 4.1,-45.1 l -142.9,-171.5 z"
     id="path1-6"
     style="fill:#00345e;fill-opacity:1" /></svg>
