<?xml version="1.0" encoding="UTF-8" standalone="no"?>
<svg
   height="14.001143"
   width="12.001143"
   viewBox="0 0 384.03659 448.03659"
   version="1.1"
   id="svg1"
   sodipodi:docname="icons.svg"
   xml:space="preserve"
   inkscape:version="1.3.1 (91b66b0783, 2023-11-16)"
   xmlns:inkscape="http://www.inkscape.org/namespaces/inkscape"
   xmlns:sodipodi="http://sodipodi.sourceforge.net/DTD/sodipodi-0.dtd"
   xmlns="http://www.w3.org/2000/svg"
   xmlns:svg="http://www.w3.org/2000/svg"><defs
     id="defs1" /><sodipodi:namedview
     id="namedview1"
     pagecolor="#ffffff"
     bordercolor="#000000"
     borderopacity="0.25"
     inkscape:showpageshadow="2"
     inkscape:pageopacity="0.0"
     inkscape:pagecheckerboard="0"
     inkscape:deskcolor="#d1d1d1"
     inkscape:zoom="15.90625"
     inkscape:cx="11.379175"
     inkscape:cy="33.917485"
     inkscape:window-width="1366"
     inkscape:window-height="705"
     inkscape:window-x="-8"
     inkscape:window-y="-8"
     inkscape:window-maximized="1"
     inkscape:current-layer="svg1"><inkscape:page
       x="8.0708344e-07"
       y="-3.3605215e-06"
       width="384.03659"
       height="448.03659"
       id="page6"
       inkscape:export-filename="./close-icon-on.svg"
       inkscape:export-xdpi="96"
       inkscape:export-ydpi="96"
       margin="0"
       bleed="0" /></sodipodi:namedview><!--!Font Awesome Free 6.5.1 by @fontawesome - https://fontawesome.com License - https://fontawesome.com/license/free Copyright 2023 Fonticons, Inc.--><path
     opacity="1"
     fill="#1e3050"
     d="m 376.61831,52.518273 c 11.3,-13.6 9.5,-33.8 -4.1,-45.0999995 -13.6,-11.3 -33.8,-9.5 -45.1,4.0999995 l -135.4,162.499997 -135.4,-162.499997 c -11.3,-13.5999995 -31.5,-15.3999995 -45.1,-4.0999995 C -2.0816901,18.718273 -3.8816901,38.918273 7.4183099,52.518273 L 150.31831,224.01827 7.4183099,395.51827 c -11.3,13.6 -9.5,33.8 4.1000001,45.1 13.6,11.3 33.8,9.5 45.1,-4.1 l 135.4,-162.5 135.4,162.5 c 11.3,13.6 31.5,15.4 45.1,4.1 13.6,-11.3 15.4,-31.5 4.1,-45.1 l -142.9,-171.5 z"
     id="path1-6-0"
     style="fill:#0091a5;fill-opacity:1" /></svg>
