<svg width="40" height="40" viewBox="0 0 40 40" fill="none" xmlns="http://www.w3.org/2000/svg">
<mask id="path-1-inside-1_333_117" fill="white">
<path d="M19.6163 17.3533C19.2966 17.3533 18.9801 17.4162 18.6847 17.5386C18.3893 17.6609 18.121 17.8402 17.8949 18.0663C17.6688 18.2924 17.4895 18.5607 17.3672 18.8561C17.2448 19.1515 17.1818 19.468 17.1818 19.7878C17.1818 20.1075 17.2448 20.424 17.3672 20.7194C17.4895 21.0148 17.6688 21.2831 17.8949 21.5092C18.121 21.7353 18.3893 21.9146 18.6847 22.0369C18.9801 22.1593 19.2966 22.2222 19.6163 22.2222C20.262 22.2222 20.8812 21.9658 21.3378 21.5092C21.7944 21.0526 22.0508 20.4334 22.0508 19.7878C22.0508 19.1421 21.7944 18.5229 21.3378 18.0663C20.8812 17.6097 20.262 17.3533 19.6163 17.3533ZM17.9318 19.7878C17.9318 19.341 18.1093 18.9125 18.4252 18.5966C18.7411 18.2807 19.1696 18.1033 19.6163 18.1033C20.0631 18.1033 20.4916 18.2807 20.8075 18.5966C21.1234 18.9125 21.3008 19.341 21.3008 19.7878C21.3008 20.2345 21.1234 20.663 20.8075 20.9789C20.4916 21.2948 20.0631 21.4722 19.6163 21.4722C19.1696 21.4722 18.7411 21.2948 18.4252 20.9789C18.1093 20.663 17.9318 20.2345 17.9318 19.7878Z"/>
<path d="M6.29659 34.5677C9.87605 37.9361 14.697 40 20 40C24.9951 40 29.5626 38.1688 33.0676 35.141C30.9966 31.5521 25.7032 29 19.5 29C13.6325 29 8.57903 31.2833 6.29659 34.5677Z"/>
<path fill-rule="evenodd" clip-rule="evenodd" d="M19.6163 17.3533C19.2966 17.3533 18.9801 17.4162 18.6847 17.5386C18.3893 17.6609 18.121 17.8402 17.8949 18.0663C17.6688 18.2924 17.4895 18.5607 17.3672 18.8561C17.2448 19.1515 17.1818 19.468 17.1818 19.7878C17.1818 20.1075 17.2448 20.424 17.3672 20.7194C17.4895 21.0148 17.6688 21.2831 17.8949 21.5092C18.121 21.7353 18.3893 21.9146 18.6847 22.0369C18.9801 22.1593 19.2966 22.2222 19.6163 22.2222C20.262 22.2222 20.8812 21.9658 21.3378 21.5092C21.7944 21.0526 22.0508 20.4334 22.0508 19.7878C22.0508 19.1421 21.7944 18.5229 21.3378 18.0663C20.8812 17.6097 20.262 17.3533 19.6163 17.3533ZM17.9318 19.7878C17.9318 19.341 18.1093 18.9125 18.4252 18.5966C18.7411 18.2807 19.1696 18.1033 19.6163 18.1033C20.0631 18.1033 20.4916 18.2807 20.8075 18.5966C21.1234 18.9125 21.3008 19.341 21.3008 19.7878C21.3008 20.2345 21.1234 20.663 20.8075 20.9789C20.4916 21.2948 20.0631 21.4722 19.6163 21.4722C19.1696 21.4722 18.7411 21.2948 18.4252 20.9789C18.1093 20.663 17.9318 20.2345 17.9318 19.7878Z"/>
<path fill-rule="evenodd" clip-rule="evenodd" d="M20.8876 14.5769C20.4923 13.2344 18.5888 13.2344 18.1936 14.5769L18.1231 14.8162C18.0955 14.9099 18.0473 14.9962 17.982 15.0689C17.9166 15.1415 17.8359 15.1987 17.7457 15.236C17.6554 15.2734 17.5579 15.2902 17.4604 15.285C17.3628 15.2798 17.2676 15.2529 17.1818 15.2062L16.9628 15.0862C15.7328 14.4172 14.3881 15.7627 15.0578 16.9919L15.1771 17.2109C15.2238 17.2967 15.2508 17.3919 15.2559 17.4894C15.2611 17.587 15.2444 17.6845 15.207 17.7747C15.1696 17.865 15.1125 17.9457 15.0398 18.011C14.9672 18.0763 14.8808 18.1246 14.7871 18.1522L14.5478 18.2227C13.2053 18.6179 13.2053 20.5214 14.5478 20.9167L14.7871 20.9872C14.8808 21.0148 14.9672 21.063 15.0398 21.1283C15.1125 21.1936 15.1696 21.2743 15.207 21.3646C15.2444 21.4549 15.2611 21.5523 15.2559 21.6499C15.2508 21.7475 15.2238 21.8426 15.1771 21.9284L15.0571 22.1474C14.3881 23.3774 15.7328 24.7229 16.9628 24.0524L17.1818 23.9332C17.2676 23.8864 17.3628 23.8595 17.4604 23.8543C17.5579 23.8491 17.6554 23.8659 17.7457 23.9033C17.8359 23.9407 17.9166 23.9978 17.982 24.0704C18.0473 24.1431 18.0955 24.2294 18.1231 24.3232L18.1936 24.5624C18.5888 25.9049 20.4923 25.9049 20.8876 24.5624L20.9581 24.3232C20.9857 24.2294 21.0339 24.1431 21.0992 24.0704C21.1645 23.9978 21.2453 23.9407 21.3355 23.9033C21.4258 23.8659 21.5233 23.8491 21.6208 23.8543C21.7184 23.8595 21.8136 23.8864 21.8993 23.9332L22.1183 24.0532C23.3483 24.7229 24.6938 23.3767 24.0233 22.1474L23.9041 21.9284C23.8574 21.8426 23.8304 21.7475 23.8253 21.6499C23.8201 21.5523 23.8368 21.4549 23.8742 21.3646C23.9116 21.2743 23.9687 21.1936 24.0414 21.1283C24.114 21.063 24.2004 21.0148 24.2941 20.9872L24.5333 20.9167C25.8758 20.5214 25.8758 18.6179 24.5333 18.2227L24.2941 18.1522C24.2004 18.1246 24.114 18.0763 24.0414 18.011C23.9687 17.9457 23.9116 17.865 23.8742 17.7747C23.8368 17.6845 23.8201 17.587 23.8253 17.4894C23.8304 17.3919 23.8574 17.2967 23.9041 17.2109L24.0241 16.9919C24.6938 15.7619 23.3476 14.4172 22.1183 15.0869L21.8993 15.2062C21.8136 15.2529 21.7184 15.2798 21.6208 15.285C21.5233 15.2902 21.4258 15.2734 21.3355 15.236C21.2453 15.1987 21.1645 15.1415 21.0992 15.0689C21.0339 14.9962 20.9857 14.9099 20.9581 14.8162L20.8876 14.5769ZM20.1683 14.7892C19.9838 14.1629 19.0973 14.1629 18.9128 14.7892L18.8423 15.0284C18.7831 15.2294 18.6796 15.4145 18.5394 15.5703C18.3993 15.7261 18.2261 15.8485 18.0326 15.9287C17.839 16.0089 17.6299 16.0448 17.4207 16.0337C17.2115 16.0226 17.0074 15.9648 16.8233 15.8647L16.6043 15.7454C16.0306 15.4334 15.4043 16.0604 15.7156 16.6334L15.8356 16.8524C15.9356 17.0364 15.9933 17.2404 16.0043 17.4496C16.0153 17.6587 15.9794 17.8677 15.8992 18.0611C15.8191 18.2546 15.6967 18.4277 15.541 18.5678C15.3853 18.7079 15.2002 18.8113 14.9993 18.8707L14.7601 18.9412C14.1338 19.1257 14.1338 20.0122 14.7601 20.1967L14.9993 20.2672C15.2005 20.3264 15.3859 20.4299 15.5418 20.5701C15.6977 20.7104 15.8203 20.8837 15.9005 21.0775C15.9807 21.2713 16.0165 21.4805 16.0053 21.6899C15.994 21.8993 15.9361 22.1036 15.8356 22.2877L15.7163 22.5059C15.4043 23.0797 16.0313 23.7059 16.6043 23.3947L16.8233 23.2747C17.0074 23.1745 17.2115 23.1167 17.4207 23.1056C17.6299 23.0946 17.839 23.1304 18.0326 23.2106C18.2261 23.2908 18.3993 23.4132 18.5394 23.569C18.6796 23.7248 18.7831 23.9099 18.8423 24.1109L18.9128 24.3502C19.0973 24.9764 19.9838 24.9764 20.1683 24.3502L20.2388 24.1117C20.298 23.9105 20.4015 23.7252 20.5416 23.5693C20.6817 23.4133 20.855 23.2907 21.0487 23.2104C21.2424 23.1302 21.4516 23.0943 21.6609 23.1054C21.8703 23.1165 22.0745 23.1743 22.2586 23.2747L22.4768 23.3939C23.0506 23.7059 23.6768 23.0789 23.3656 22.5059L23.2456 22.2877C23.1453 22.1036 23.0874 21.8994 23.0763 21.6901C23.0651 21.4808 23.1009 21.2716 23.1811 21.078C23.2613 20.8843 23.3838 20.711 23.5397 20.5709C23.6955 20.4307 23.8808 20.3272 24.0818 20.2679L24.3211 20.1974C24.9473 20.0129 24.9473 19.1264 24.3211 18.9419L24.0826 18.8714C23.8816 18.8122 23.6963 18.7088 23.5405 18.5687C23.3846 18.4286 23.2621 18.2554 23.1818 18.0618C23.1016 17.8683 23.0656 17.6592 23.0767 17.4499C23.0877 17.2406 23.1454 17.0365 23.2456 16.8524L23.3648 16.6334C23.6768 16.0597 23.0498 15.4334 22.4768 15.7447L22.2586 15.8647C22.0745 15.965 21.8704 16.0228 21.6611 16.034C21.4517 16.0452 21.2426 16.0093 21.0489 15.9291C20.8552 15.849 20.682 15.7264 20.5418 15.5706C20.4016 15.4147 20.2981 15.2295 20.2388 15.0284L20.1683 14.7892Z"/>
<path fill-rule="evenodd" clip-rule="evenodd" d="M19.5 29C24.7467 29 29 24.7467 29 19.5C29 14.2533 24.7467 10 19.5 10C14.2533 10 10 14.2533 10 19.5C10 24.7467 14.2533 29 19.5 29ZM18.1936 14.5769C18.5888 13.2344 20.4923 13.2344 20.8876 14.5769L20.9581 14.8162C20.9857 14.9099 21.0339 14.9962 21.0992 15.0689C21.1645 15.1415 21.2453 15.1987 21.3355 15.236C21.4258 15.2734 21.5233 15.2902 21.6208 15.285C21.7184 15.2798 21.8136 15.2529 21.8993 15.2062L22.1183 15.0869C23.3476 14.4172 24.6938 15.7619 24.0241 16.9919L23.9041 17.2109C23.8574 17.2967 23.8304 17.3919 23.8253 17.4894C23.8201 17.587 23.8368 17.6845 23.8742 17.7747C23.9116 17.865 23.9687 17.9457 24.0414 18.011C24.114 18.0763 24.2004 18.1246 24.2941 18.1522L24.5333 18.2227C25.8758 18.6179 25.8758 20.5214 24.5333 20.9167L24.2941 20.9872C24.2004 21.0148 24.114 21.063 24.0414 21.1283C23.9687 21.1936 23.9116 21.2743 23.8742 21.3646C23.8368 21.4549 23.8201 21.5523 23.8253 21.6499C23.8304 21.7475 23.8574 21.8426 23.9041 21.9284L24.0233 22.1474C24.6938 23.3767 23.3483 24.7229 22.1183 24.0532L21.8993 23.9332C21.8136 23.8864 21.7184 23.8595 21.6208 23.8543C21.5233 23.8491 21.4258 23.8659 21.3355 23.9033C21.2453 23.9407 21.1645 23.9978 21.0992 24.0704C21.0339 24.1431 20.9857 24.2294 20.9581 24.3232L20.8876 24.5624C20.4923 25.9049 18.5888 25.9049 18.1936 24.5624L18.1231 24.3232C18.0955 24.2294 18.0473 24.1431 17.982 24.0704C17.9166 23.9978 17.8359 23.9407 17.7457 23.9033C17.6554 23.8659 17.5579 23.8491 17.4604 23.8543C17.3628 23.8595 17.2676 23.8864 17.1818 23.9332L16.9628 24.0524C15.7328 24.7229 14.3881 23.3774 15.0571 22.1474L15.1771 21.9284C15.2238 21.8426 15.2508 21.7475 15.2559 21.6499C15.2611 21.5523 15.2444 21.4549 15.207 21.3646C15.1696 21.2743 15.1125 21.1936 15.0398 21.1283C14.9672 21.063 14.8808 21.0148 14.7871 20.9872L14.5478 20.9167C13.2053 20.5214 13.2053 18.6179 14.5478 18.2227L14.7871 18.1522C14.8808 18.1246 14.9672 18.0763 15.0398 18.011C15.1125 17.9457 15.1696 17.865 15.207 17.7747C15.2444 17.6845 15.2611 17.587 15.2559 17.4894C15.2508 17.3919 15.2238 17.2967 15.1771 17.2109L15.0578 16.9919C14.3881 15.7627 15.7328 14.4172 16.9628 15.0862L17.1818 15.2062C17.2676 15.2529 17.3628 15.2798 17.4604 15.285C17.5579 15.2902 17.6554 15.2734 17.7457 15.236C17.8359 15.1987 17.9166 15.1415 17.982 15.0689C18.0473 14.9962 18.0955 14.9099 18.1231 14.8162L18.1936 14.5769Z"/>
</mask>
<path d="M19.6163 17.3533L19.6163 28.8533L19.6163 17.3533ZM19.6163 22.2222L19.6163 10.7222L19.6163 22.2222ZM20.8876 14.5769L9.85578 17.8248L9.85654 17.8274L20.8876 14.5769ZM18.1936 14.5769L29.2247 17.8274L29.2254 17.8248L18.1936 14.5769ZM18.1231 14.8162L7.09204 11.5656L7.09166 11.5669L18.1231 14.8162ZM17.1818 15.2062L11.6557 25.2914L11.6684 25.2984L11.6812 25.3053L17.1818 15.2062ZM16.9628 15.0862L22.489 5.00094L22.4733 4.99233L22.4576 4.98378L16.9628 15.0862ZM15.0578 16.9919L25.1576 11.4924L25.1562 11.4899L15.0578 16.9919ZM15.1771 17.2109L5.07732 22.7104L5.07794 22.7115L15.1771 17.2109ZM14.7871 18.1522L11.5379 7.12072L11.5366 7.12111L14.7871 18.1522ZM14.5478 18.2227L17.7958 29.2545L17.7984 29.2537L14.5478 18.2227ZM14.5478 20.9167L17.7984 9.88561L17.7958 9.88484L14.5478 20.9167ZM14.7871 20.9872L11.5366 32.0182L11.5379 32.0186L14.7871 20.9872ZM15.1771 21.9284L25.2623 27.4546L25.2693 27.4418L25.2763 27.429L15.1771 21.9284ZM15.0571 22.1474L4.97189 16.6212L4.96328 16.6369L4.95471 16.6527L15.0571 22.1474ZM16.9628 24.0524L11.4633 13.9527L11.4586 13.9552L16.9628 24.0524ZM17.1818 23.9332L22.6814 34.0329L22.6825 34.0323L17.1818 23.9332ZM18.1231 24.3232L7.09166 27.5724L7.09204 27.5737L18.1231 24.3232ZM18.1936 24.5624L29.2254 21.3145L29.2247 21.3119L18.1936 24.5624ZM20.8876 24.5624L9.85654 21.3119L9.85578 21.3145L20.8876 24.5624ZM20.9581 24.3232L31.9892 27.5737L31.9895 27.5724L20.9581 24.3232ZM21.8993 23.9332L27.4255 13.8479L27.4127 13.8409L27.4 13.834L21.8993 23.9332ZM22.1183 24.0532L16.5922 34.1384L16.6055 34.1457L16.6189 34.153L22.1183 24.0532ZM24.0233 22.1474L13.9236 27.647L13.9275 27.6542L24.0233 22.1474ZM23.9041 21.9284L34.0038 16.4289L34.0033 16.4278L23.9041 21.9284ZM24.2941 20.9872L27.5433 32.0186L27.5446 32.0182L24.2941 20.9872ZM24.5333 20.9167L21.2854 9.88484L21.2828 9.8856L24.5333 20.9167ZM24.5333 18.2227L21.2828 29.2537L21.2854 29.2545L24.5333 18.2227ZM24.2941 18.1522L27.5446 7.1211L27.5433 7.12072L24.2941 18.1522ZM23.9041 17.2109L13.8188 11.6848L13.8119 11.6975L13.8049 11.7103L23.9041 17.2109ZM24.0241 16.9919L34.1094 22.518L34.1166 22.5047L34.1239 22.4914L24.0241 16.9919ZM22.1183 15.0869L27.6179 25.1867L27.6204 25.1853L22.1183 15.0869ZM21.8993 15.2062L16.3998 5.1064L16.3987 5.107L21.8993 15.2062ZM20.9581 14.8162L31.9895 11.5669L31.9891 11.5656L20.9581 14.8162ZM19.6163 5.85325C17.7864 5.85325 15.9744 6.21369 14.2838 6.91395L23.0856 28.1632C21.9857 28.6188 20.8069 28.8533 19.6163 28.8533L19.6163 5.85325ZM14.2838 6.91395C12.5932 7.61423 11.0571 8.64063 9.76317 9.93457L26.0266 26.198C25.1848 27.0398 24.1854 27.7076 23.0856 28.1632L14.2838 6.91395ZM9.76317 9.93457C8.46923 11.2285 7.44282 12.7646 6.74255 14.4552L27.9918 23.257C27.5362 24.3568 26.8684 25.3562 26.0266 26.198L9.76317 9.93457ZM6.74255 14.4552C6.04228 16.1458 5.68185 17.9578 5.68185 19.7878H28.6818C28.6818 20.9783 28.4474 22.1571 27.9918 23.257L6.74255 14.4552ZM5.68185 19.7878C5.68185 21.6177 6.04228 23.4297 6.74255 25.1203L27.9918 16.3185C28.4474 17.4184 28.6818 18.5972 28.6818 19.7878H5.68185ZM6.74255 25.1203C7.44282 26.8109 8.46923 28.347 9.76317 29.6409L26.0266 13.3775C26.8684 14.2193 27.5362 15.2187 27.9918 16.3185L6.74255 25.1203ZM9.76317 29.6409C11.0571 30.9349 12.5932 31.9613 14.2838 32.6615L23.0856 11.4123C24.1854 11.8679 25.1848 12.5357 26.0266 13.3775L9.76317 29.6409ZM14.2838 32.6615C15.9744 33.3618 17.7864 33.7223 19.6163 33.7222L19.6163 10.7222C20.8069 10.7222 21.9857 10.9567 23.0856 11.4123L14.2838 32.6615ZM19.6163 33.7222C23.312 33.7222 26.8563 32.2541 29.4695 29.6409L13.2061 13.3775C14.9062 11.6774 17.212 10.7223 19.6163 10.7222L19.6163 33.7222ZM29.4695 29.6409C32.0827 27.0277 33.5508 23.4834 33.5508 19.7878H10.5508C10.5508 17.3834 11.506 15.0776 13.2061 13.3775L29.4695 29.6409ZM33.5508 19.7878C33.5508 16.0921 32.0827 12.5478 29.4695 9.93457L13.2061 26.198C11.506 24.4979 10.5508 22.1921 10.5508 19.7878H33.5508ZM29.4695 9.93457C26.8563 7.32135 23.312 5.85325 19.6163 5.85325L19.6163 28.8533C17.212 28.8533 14.9062 27.8981 13.2061 26.198L29.4695 9.93457ZM29.4318 19.7878C29.4318 22.391 28.3977 24.8876 26.557 26.7284L10.2935 10.4649C7.82091 12.9375 6.43185 16.291 6.43185 19.7878H29.4318ZM26.557 26.7284C24.7162 28.5691 22.2196 29.6033 19.6163 29.6033V6.60325C16.1196 6.60325 12.7661 7.99231 10.2935 10.4649L26.557 26.7284ZM19.6163 29.6033C17.0131 29.6033 14.5165 28.5691 12.6757 26.7284L28.9392 10.4649C26.4666 7.99232 23.1131 6.60325 19.6163 6.60325V29.6033ZM12.6757 26.7284C10.835 24.8876 9.80085 22.391 9.80085 19.7878H32.8008C32.8008 16.291 31.4118 12.9375 28.9392 10.4649L12.6757 26.7284ZM9.80085 19.7878C9.80085 17.1845 10.835 14.6879 12.6757 12.8471L28.9392 29.1106C31.4118 26.638 32.8008 23.2845 32.8008 19.7878H9.80085ZM12.6757 12.8471C14.5165 11.0064 17.0131 9.97225 19.6163 9.97225V32.9722C23.1131 32.9722 26.4666 31.5832 28.9392 29.1106L12.6757 12.8471ZM19.6163 9.97225C22.2196 9.97225 24.7162 11.0064 26.557 12.8471L10.2935 29.1106C12.7661 31.5832 16.1196 32.9722 19.6163 32.9722V9.97225ZM26.557 12.8471C28.3977 14.6879 29.4318 17.1845 29.4318 19.7878H6.43185C6.43185 23.2845 7.82092 26.638 10.2935 29.1106L26.557 12.8471ZM31.9194 11.329C28.2848 -1.01628 10.7964 -1.01628 7.16178 11.329L29.2254 17.8248C26.3813 27.4851 12.6999 27.4851 9.85578 17.8248L31.9194 11.329ZM7.16254 11.3264L7.09204 11.5656L29.1542 18.0667L29.2247 17.8274L7.16254 11.3264ZM7.09166 11.5669C7.54888 10.0146 8.34767 8.58435 9.42945 7.38092L26.5345 22.7568C27.7469 21.4081 28.6421 19.8051 29.1545 18.0654L7.09166 11.5669ZM9.42945 7.38092C10.5113 6.17744 11.8487 5.23134 13.3436 4.61192L22.1477 25.8602C23.8231 25.166 25.322 24.1056 26.5345 22.7568L9.42945 7.38092ZM13.3436 4.61192C14.8386 3.99249 16.4532 3.71546 18.0692 3.80112L16.8516 26.7689C18.6626 26.8649 20.4722 26.5544 22.1477 25.8602L13.3436 4.61192ZM18.0692 3.80112C19.6851 3.88679 21.2614 4.33299 22.6825 5.107L11.6812 25.3053C13.2739 26.1728 15.0405 26.6729 16.8516 26.7689L18.0692 3.80112ZM22.708 5.12094L22.489 5.00094L11.4367 25.1714L11.6557 25.2914L22.708 5.12094ZM22.4576 4.98378C11.164 -1.15882 -1.1981 11.1925 4.95946 22.494L25.1562 11.4899C29.9743 20.3328 20.3017 29.9931 11.4681 25.1885L22.4576 4.98378ZM4.95807 22.4914L5.07732 22.7104L25.2769 11.7114L25.1576 11.4924L4.95807 22.4914ZM5.07794 22.7115C4.30393 21.2905 3.85773 19.7142 3.77206 18.0982L26.7398 16.8806C26.6438 15.0696 26.1437 13.3029 25.2763 11.7103L5.07794 22.7115ZM3.77206 18.0982C3.68639 16.4823 3.96343 14.8677 4.58286 13.3727L25.8311 22.1767C26.5253 20.5013 26.8358 18.6917 26.7398 16.8806L3.77206 18.0982ZM4.58286 13.3727C5.20231 11.8777 6.14845 10.5403 7.35186 9.45852L22.7278 26.5635C24.0765 25.3511 25.1369 23.8523 25.8311 22.1767L4.58286 13.3727ZM7.35186 9.45852C8.55519 8.37683 9.98544 7.57798 11.5379 7.12072L18.0363 29.1836C19.7762 28.6711 21.3791 27.7758 22.7278 26.5635L7.35186 9.45852ZM11.5366 7.12111L11.2973 7.19161L17.7984 29.2537L18.0376 29.1832L11.5366 7.12111ZM11.2999 7.19084C-1.04535 10.8255 -1.04535 28.3139 11.2999 31.9485L17.7958 9.88484C27.456 12.729 27.456 26.4104 17.7958 29.2545L11.2999 7.19084ZM11.2973 31.9477L11.5366 32.0182L18.0376 9.95611L17.7984 9.88561L11.2973 31.9477ZM11.5379 32.0186C9.9857 31.5614 8.55539 30.7627 7.35186 29.6808L22.7278 12.5758C21.3789 11.3633 19.7759 10.4681 18.0363 9.95572L11.5379 32.0186ZM7.35186 29.6808C6.14845 28.599 5.20231 27.2617 4.58286 25.7666L25.8311 16.9626C25.1369 15.287 24.0765 13.7882 22.7278 12.5758L7.35186 29.6808ZM4.58286 25.7666C3.96341 24.2716 3.6864 22.657 3.77206 21.0411L26.7398 22.2587C26.8358 20.4477 26.5254 18.6381 25.8311 16.9626L4.58286 25.7666ZM3.77206 21.0411C3.85773 19.4251 4.30393 17.8489 5.07794 16.4278L25.2763 27.429C26.1437 25.8364 26.6438 24.0698 26.7398 22.2587L3.77206 21.0411ZM5.09189 16.4022L4.97189 16.6212L25.1423 27.6736L25.2623 27.4546L5.09189 16.4022ZM4.95471 16.6527C-1.17974 27.9313 11.1488 40.3195 22.4671 34.1496L11.4586 13.9552C20.3169 9.12636 29.9559 18.8235 25.1595 27.6421L4.95471 16.6527ZM22.4624 34.1521L22.6814 34.0329L11.6823 13.8334L11.4633 13.9527L22.4624 34.1521ZM22.6825 34.0323C21.2614 34.8063 19.6851 35.2525 18.0692 35.3382L16.8516 12.3704C15.0405 12.4665 13.2739 12.9665 11.6812 13.834L22.6825 34.0323ZM18.0692 35.3382C16.4531 35.4239 14.8385 35.1468 13.3436 34.5274L22.1477 13.2791C20.4723 12.585 18.6627 12.2744 16.8516 12.3704L18.0692 35.3382ZM13.3436 34.5274C11.8489 33.9081 10.5114 32.962 9.42945 31.7584L26.5345 16.3825C25.3219 15.0336 23.823 13.9733 22.1477 13.2791L13.3436 34.5274ZM9.42945 31.7584C8.34765 30.5549 7.54887 29.1246 7.09166 27.5724L29.1545 21.0739C28.6421 19.3342 27.7469 17.7313 26.5345 16.3825L9.42945 31.7584ZM7.09204 27.5737L7.16254 27.8129L29.2247 21.3119L29.1542 21.0727L7.09204 27.5737ZM7.16178 27.8103C10.7964 40.1556 28.2848 40.1556 31.9194 27.8103L9.85578 21.3145C12.6999 11.6542 26.3813 11.6542 29.2254 21.3145L7.16178 27.8103ZM31.9187 27.8129L31.9892 27.5737L9.92704 21.0727L9.85654 21.3119L31.9187 27.8129ZM31.9895 27.5724C31.5323 29.1246 30.7335 30.5549 29.6517 31.7584L12.5467 16.3825C11.3343 17.7313 10.4391 19.3342 9.92666 21.0739L31.9895 27.5724ZM29.6517 31.7584C28.5698 32.9619 27.2324 33.908 25.7376 34.5274L16.9335 13.2791C15.2582 13.9733 13.7592 15.0336 12.5467 16.3825L29.6517 31.7584ZM25.7376 34.5274C24.2426 35.1468 22.628 35.4239 21.012 35.3382L22.2296 12.3704C20.4185 12.2744 18.6089 12.5849 16.9335 13.2791L25.7376 34.5274ZM21.012 35.3382C19.3961 35.2525 17.8198 34.8063 16.3987 34.0323L27.4 13.834C25.8073 12.9665 24.0407 12.4665 22.2296 12.3704L21.012 35.3382ZM16.3732 34.0184L16.5922 34.1384L27.6445 13.9679L27.4255 13.8479L16.3732 34.0184ZM16.6189 34.153C27.9148 40.3037 40.2849 27.9444 34.1191 16.6406L13.9275 27.6542C9.10282 18.8089 18.7819 9.14209 27.6178 13.9534L16.6189 34.153ZM34.1231 16.6479L34.0038 16.4289L13.8043 27.428L13.9236 27.647L34.1231 16.6479ZM34.0033 16.4278C34.7773 17.8489 35.2235 19.4251 35.3091 21.0411L12.3414 22.2587C12.4374 24.0698 12.9375 25.8364 13.8049 27.429L34.0033 16.4278ZM35.3091 21.0411C35.3948 22.6569 35.1178 24.2715 34.4983 25.7666L13.2501 16.9626C12.5558 18.6382 12.2454 20.4478 12.3414 22.2587L35.3091 21.0411ZM34.4983 25.7666C33.8789 27.2616 32.9328 28.599 31.7293 29.6808L16.3534 12.5758C15.0047 13.7882 13.9443 15.2871 13.2501 16.9626L34.4983 25.7666ZM31.7293 29.6808C30.5258 30.7627 29.0955 31.5614 27.5433 32.0186L21.0449 9.95572C19.3053 10.4681 17.7023 11.3633 16.3534 12.5758L31.7293 29.6808ZM27.5446 32.0182L27.7838 31.9477L21.2828 9.8856L21.0436 9.9561L27.5446 32.0182ZM27.7813 31.9485C40.1265 28.3139 40.1265 10.8255 27.7813 7.19084L21.2854 29.2545C11.6252 26.4104 11.6252 12.729 21.2854 9.88484L27.7813 31.9485ZM27.7838 7.1916L27.5446 7.1211L21.0436 29.1832L21.2828 29.2537L27.7838 7.1916ZM27.5433 7.12072C29.0957 7.57797 30.526 8.3768 31.7293 9.45852L16.3534 26.5635C17.7021 27.7759 19.3051 28.6711 21.0449 29.1836L27.5433 7.12072ZM31.7293 9.45852C32.9328 10.5403 33.8789 11.8777 34.4983 13.3727L13.2501 22.1767C13.9443 23.8522 15.0047 25.3511 16.3534 26.5635L31.7293 9.45852ZM34.4983 13.3727C35.1178 14.8677 35.3948 16.4824 35.3091 18.0982L12.3414 16.8806C12.2454 18.6916 12.5558 20.5012 13.2501 22.1767L34.4983 13.3727ZM35.3091 18.0982C35.2235 19.7142 34.7773 21.2905 34.0033 22.7115L13.8049 11.7103C12.9375 13.3029 12.4374 15.0696 12.3414 16.8806L35.3091 18.0982ZM33.9894 22.737L34.1094 22.518L13.9388 11.4658L13.8188 11.6848L33.9894 22.737ZM34.1239 22.4914C40.2824 11.1812 27.9035 -1.16127 16.6163 4.98852L27.6204 25.1853C18.7917 29.9956 9.10527 20.3426 13.9243 11.4924L34.1239 22.4914ZM16.6188 4.98715L16.3998 5.1064L27.3989 25.3059L27.6179 25.1867L16.6188 4.98715ZM16.3987 5.107C17.8198 4.33299 19.3961 3.88679 21.012 3.80112L22.2296 26.7689C24.0407 26.6729 25.8073 26.1728 27.4 25.3053L16.3987 5.107ZM21.012 3.80112C22.6279 3.71546 24.2426 3.99248 25.7376 4.61192L16.9335 25.8602C18.609 26.5544 20.4186 26.8649 22.2296 26.7689L21.012 3.80112ZM25.7376 4.61192C27.2326 5.23137 28.57 6.17751 29.6517 7.38092L12.5467 22.7568C13.7591 24.1056 15.258 25.1659 16.9335 25.8602L25.7376 4.61192ZM29.6517 7.38092C30.7335 8.58435 31.5323 10.0146 31.9895 11.5669L9.92666 18.0654C10.4391 19.8051 11.3343 21.4081 12.5467 22.7568L29.6517 7.38092ZM31.9891 11.5656L31.9187 11.3264L9.85654 17.8274L9.92704 18.0667L31.9891 11.5656ZM11.5 20C11.5 15.3056 15.3056 11.5 20 11.5V-11.5C2.60303 -11.5 -11.5 2.60303 -11.5 20H11.5ZM20 11.5C24.6944 11.5 28.5 15.3056 28.5 20H51.5C51.5 2.60303 37.397 -11.5 20 -11.5V11.5ZM28.5 20C28.5 22.5691 27.3745 24.8624 25.55 26.4384L40.5852 43.8437C47.2519 38.0848 51.5 29.5321 51.5 20H28.5ZM14.1776 26.1928C12.5144 24.6277 11.5 22.4415 11.5 20H-11.5C-11.5 29.0439 -7.67373 37.2125 -1.58444 42.9427L14.1776 26.1928ZM18.9128 14.7892L40.975 21.2902L40.9753 21.289L18.9128 14.7892ZM20.1683 14.7892L-1.89411 21.289L-1.89377 21.2902L20.1683 14.7892ZM20.2388 15.0284L-1.82327 21.5294L-1.82274 21.5312L20.2388 15.0284ZM22.2586 15.8647L33.2664 36.0594L33.3033 36.0393L33.3401 36.0191L22.2586 15.8647ZM22.4768 15.7447L11.4985 -4.46612L11.4469 -4.43808L11.3954 -4.40978L22.4768 15.7447ZM23.3648 16.6334L43.5644 27.6323L43.5706 27.6211L23.3648 16.6334ZM23.2456 16.8524L3.04601 5.85347L3.04339 5.85829L23.2456 16.8524ZM24.0826 18.8714L30.6024 -3.18516L30.5915 -3.18838L30.5806 -3.19159L24.0826 18.8714ZM24.3211 18.9419L17.8013 40.9985L17.8113 41.0014L17.8213 41.0044L24.3211 18.9419ZM24.3211 20.1974L17.8213 -1.86505L17.8201 -1.86471L24.3211 20.1974ZM24.0818 20.2679L17.5808 -1.79421L17.579 -1.79367L24.0818 20.2679ZM23.2456 22.2877L3.05085 33.2955L3.07095 33.3324L3.09119 33.3692L23.2456 22.2877ZM23.3656 22.5059L43.5764 11.5275L43.5483 11.4759L43.52 11.4244L23.3656 22.5059ZM22.4768 23.3939L11.4486 43.5775L11.4689 43.5886L11.4892 43.5996L22.4768 23.3939ZM22.2586 23.2747L33.2868 3.09106L33.2751 3.08463L33.2633 3.07821L22.2586 23.2747ZM20.2388 24.1117L42.2954 30.6315L42.2995 30.6177L42.3035 30.6039L20.2388 24.1117ZM20.1683 24.3502L-1.88821 17.8303L-1.89117 17.8403L-1.89411 17.8503L20.1683 24.3502ZM18.9128 24.3502L40.9753 17.8503L40.975 17.8492L18.9128 24.3502ZM18.8423 24.1109L40.9045 17.6099L40.9022 17.6023L18.8423 24.1109ZM16.8233 23.2747L5.8261 3.07415L5.79845 3.0892L5.77085 3.10433L16.8233 23.2747ZM16.6043 23.3947L27.5827 43.6054L27.6198 43.5853L27.6568 43.565L16.6043 23.3947ZM15.7163 22.5059L-4.46733 11.4778L-4.47837 11.498L-4.48937 11.5182L15.7163 22.5059ZM15.8356 22.2877L36.0193 33.3158L36.0246 33.3061L15.8356 22.2877ZM14.9993 20.2672L8.49834 42.3293L8.50231 42.3304L14.9993 20.2672ZM14.7601 20.1967L21.2611 -1.86546L21.2599 -1.8658L14.7601 20.1967ZM14.7601 18.9412L21.2599 41.0036L21.2611 41.0033L14.7601 18.9412ZM14.9993 18.8707L21.5004 40.9328L21.5137 40.9288L14.9993 18.8707ZM15.8356 16.8524L36.0419 5.86575L36.024 5.83291L36.006 5.80012L15.8356 16.8524ZM15.7156 16.6334L-4.49518 27.6118L-4.47508 27.6488L-4.45485 27.6857L15.7156 16.6334ZM16.6043 15.7454L27.6033 -4.45418L27.592 -4.4603L16.6043 15.7454ZM16.8233 15.8647L5.8244 36.0642L5.8261 36.0652L16.8233 15.8647ZM18.8423 15.0284L40.9022 21.537L40.9045 21.5294L18.8423 15.0284ZM6.29659 34.5677L-12.5906 21.4424L-23.9075 37.7273L-9.4655 51.3176L6.29659 34.5677ZM33.0676 35.141L48.1027 52.5463L62.4929 40.1157L52.9887 23.6455L33.0676 35.141ZM40.9753 21.289C34.6783 42.663 4.40289 42.663 -1.89411 21.289L42.2308 8.28932C35.5648 -14.3371 3.51639 -14.3371 -3.14961 8.28932L40.9753 21.289ZM-1.89377 21.2902L-1.82327 21.5294L42.301 8.52741L42.2305 8.28816L-1.89377 21.2902ZM-1.82274 21.5312C-0.793123 25.0243 1.00518 28.2427 3.44032 30.9504L37.6433 0.190738C39.7981 2.58675 41.3893 5.43463 42.3004 8.5256L-1.82274 21.5312ZM3.44032 30.9504C5.87541 33.6581 8.88564 35.7866 12.2504 37.1797L29.8474 -5.32141C32.8248 -4.08866 35.4885 -2.20522 37.6433 0.190738L3.44032 30.9504ZM12.2504 37.1797C15.6153 38.5729 19.2491 39.1952 22.8854 39.0014L20.4367 -6.93339C23.6544 -7.10491 26.8699 -6.55421 29.8474 -5.32141L12.2504 37.1797ZM22.8854 39.0014C26.5218 38.8075 30.0689 37.8023 33.2664 36.0594L11.2508 -4.33009C14.0802 -5.87237 17.2189 -6.76186 20.4367 -6.93339L22.8854 39.0014ZM33.3401 36.0191L33.5583 35.8991L11.3954 -4.40978L11.1771 -4.28978L33.3401 36.0191ZM33.4552 35.9554C13.9186 46.5676 -7.48534 25.2203 3.15913 5.64573L43.5706 27.6211C54.839 6.89902 32.1811 -15.7008 11.4985 -4.46612L33.4552 35.9554ZM3.16526 5.63447L3.04601 5.85347L43.4452 27.8513L43.5644 27.6323L3.16526 5.63447ZM3.04339 5.85829C1.30309 9.05617 0.300342 12.6029 0.108591 16.2385L46.0447 18.6613C45.8751 21.8784 44.9878 25.0168 43.4478 27.8465L3.04339 5.85829ZM0.108591 16.2385C-0.0831636 19.8742 0.540965 23.5067 1.9352 26.8699L44.4284 9.25382C45.6621 12.2298 46.2144 15.4441 46.0447 18.6613L0.108591 16.2385ZM1.9352 26.8699C3.3294 30.233 5.45841 33.2416 8.16633 35.6753L38.9146 1.46209C41.3108 3.61561 43.1947 6.27791 44.4284 9.25382L1.9352 26.8699ZM8.16633 35.6753C10.8741 38.1089 14.0922 39.9058 17.5846 40.9344L30.5806 -3.19159C33.671 -2.28141 36.5185 -0.69133 38.9146 1.46209L8.16633 35.6753ZM17.5628 40.928L17.8013 40.9985L30.8409 -3.11466L30.6024 -3.18516L17.5628 40.928ZM17.8213 41.0044C-3.55271 34.7074 -3.55271 4.43195 17.8213 -1.86505L30.8209 42.2599C53.4474 35.5939 53.4474 3.54545 30.8209 -3.12055L17.8213 41.0044ZM17.8201 -1.86471L17.5808 -1.79421L30.5829 42.33L30.8221 42.2595L17.8201 -1.86471ZM17.579 -1.79367C14.086 -0.764068 10.8676 1.03422 8.15982 3.46938L38.9195 37.6723C36.5235 39.8272 33.6756 41.4184 30.5847 42.3295L17.579 -1.79367ZM8.15982 3.46938C5.45217 5.90445 3.32369 8.91468 1.93055 12.2795L44.4317 29.8765C43.1989 32.8539 41.3155 35.5176 38.9195 37.6723L8.15982 3.46938ZM1.93055 12.2795C0.537424 15.6442 -0.0849838 19.278 0.108863 22.9144L46.0436 20.4658C46.2152 23.6836 45.6644 26.8991 44.4317 29.8765L1.93055 12.2795ZM0.108863 22.9144C0.302713 26.5509 1.30794 30.098 3.05085 33.2955L43.4403 11.2798C44.9826 14.1092 45.8721 17.2479 46.0436 20.4658L0.108863 22.9144ZM3.09119 33.3692L3.2112 33.5874L43.52 11.4244L43.4 11.2061L3.09119 33.3692ZM3.15482 33.4843C-7.45732 13.9477 13.8899 -7.45631 33.4645 3.1882L11.4892 43.5996C32.2113 54.8681 54.811 32.2101 43.5764 11.5275L3.15482 33.4843ZM33.5051 3.21031L33.2868 3.09106L11.2303 43.4583L11.4486 43.5775L33.5051 3.21031ZM33.2633 3.07821C30.0648 1.33541 26.5169 0.330747 22.8798 0.137725L20.442 46.0731C17.2237 45.9023 14.0842 45.0133 11.2539 43.4711L33.2633 3.07821ZM22.8798 0.137725C19.2426 -0.0553042 15.6083 0.568257 12.2434 1.96268L29.8539 44.4582C26.8764 45.6921 23.6605 46.2439 20.442 46.0731L22.8798 0.137725ZM12.2434 1.96268C8.87851 3.35713 5.86847 5.48708 3.43401 8.19622L37.6492 38.9423C35.495 41.3395 32.8315 43.2243 29.8539 44.4582L12.2434 1.96268ZM3.43401 8.19622C0.999539 10.9054 -0.79771 14.1251 -1.82585 17.6194L42.3035 30.6039C41.3938 33.6959 39.8034 36.545 37.6492 38.9423L3.43401 8.19622ZM-1.81771 17.5918L-1.88821 17.8303L42.2249 30.87L42.2954 30.6315L-1.81771 17.5918ZM-1.89411 17.8503C4.40289 -3.52365 34.6783 -3.52365 40.9753 17.8503L-3.14961 30.85C3.51639 53.4765 35.5648 53.4765 42.2308 30.85L-1.89411 17.8503ZM40.975 17.8492L40.9045 17.6099L-3.21977 30.6119L-3.14927 30.8512L40.975 17.8492ZM40.9022 17.6023C39.8721 14.111 38.0741 10.8944 35.6399 8.18806L1.43897 38.95C-0.71497 36.5552 -2.30602 33.7089 -3.21754 30.6195L40.9022 17.6023ZM35.6399 8.18806C33.2057 5.48171 30.1969 3.35413 26.8339 1.96119L9.23127 44.46C6.25539 43.2274 3.59296 41.3448 1.43897 38.95L35.6399 8.18806ZM26.8339 1.96119C23.471 0.568313 19.839 -0.0547262 16.2039 0.137854L18.6375 46.0734C15.4209 46.2438 12.207 45.6925 9.23127 44.46L26.8339 1.96119ZM16.2039 0.137854C12.569 0.330424 9.02317 1.33365 5.8261 3.07415L27.8206 43.4752C24.9916 45.0153 21.8539 45.903 18.6375 46.0734L16.2039 0.137854ZM5.77085 3.10433L5.55185 3.22433L27.6568 43.565L27.8758 43.445L5.77085 3.10433ZM5.62598 3.18388C25.1628 -7.42839 46.5664 13.9192 35.9221 33.4936L-4.48937 11.5182C-15.7577 32.2401 6.8999 54.8402 27.5827 43.6054L5.62598 3.18388ZM35.9 33.534L36.0193 33.3158L-4.34808 11.2595L-4.46733 11.4778L35.9 33.534ZM36.0246 33.3061C37.7699 30.1081 38.7771 26.5598 38.9723 22.9218L-6.96172 20.4581C-6.78906 17.2388 -5.89781 14.0991 -4.35338 11.2693L36.0246 33.3061ZM38.9723 22.9218C39.1674 19.2836 38.5455 15.648 37.1522 12.2818L-5.35121 29.8732C-6.58406 26.8945 -7.13439 23.6774 -6.96172 20.4581L38.9723 22.9218ZM37.1522 12.2818C35.759 8.91559 33.6298 5.90384 30.9205 3.46767L0.163073 37.6726C-2.23429 35.5169 -4.1184 32.8519 -5.35121 29.8732L37.1522 12.2818ZM30.9205 3.46767C28.2114 1.0316 24.9913 -0.766977 21.4964 -1.79613L8.50231 42.3304C5.40976 41.4198 2.56032 39.8282 0.163073 37.6726L30.9205 3.46767ZM21.5004 -1.79496L21.2611 -1.86546L8.25909 42.2588L8.49834 42.3293L21.5004 -1.79496ZM21.2599 -1.8658C42.6339 4.4312 42.6339 34.7066 21.2599 41.0036L8.26026 -3.1213C-14.3662 3.5447 -14.3662 35.5931 8.26026 42.2591L21.2599 -1.8658ZM21.2611 41.0033L21.5004 40.9328L8.49834 -3.19146L8.25909 -3.12096L21.2611 41.0033ZM21.5137 40.9288C25.0033 39.8983 28.2181 38.1005 30.923 35.6673L0.158887 1.46832C2.5524 -0.684792 5.39715 -2.2756 8.48502 -3.18753L21.5137 40.9288ZM30.923 35.6673C33.628 33.234 35.7547 30.2266 37.1475 26.8652L-5.34901 9.25706C-4.11657 6.28263 -2.23467 3.62148 0.158887 1.46832L30.923 35.6673ZM37.1475 26.8652C38.5402 23.5039 39.1638 19.8737 38.9725 16.2403L-6.9639 18.6588C-7.13318 15.4437 -6.58142 12.2314 -5.34901 9.25706L37.1475 26.8652ZM38.9725 16.2403C38.7812 12.6068 37.7799 9.06219 36.0419 5.86575L-4.37067 27.8391C-5.90858 25.0106 -6.79463 21.874 -6.9639 18.6588L38.9725 16.2403ZM36.006 5.80012L35.886 5.58112L-4.45485 27.6857L-4.33485 27.9047L36.006 5.80012ZM35.9264 5.65504C46.5386 25.1918 25.1911 46.5955 5.61666 35.9511L27.592 -4.4603C6.87008 -15.7287 -15.7299 6.92902 -4.49518 27.6118L35.9264 5.65504ZM5.6054 35.945L5.8244 36.0642L27.8223 -4.33493L27.6033 -4.45417L5.6054 35.945ZM5.8261 36.0652C9.02317 37.8057 12.569 38.8089 16.2039 39.0015L18.6375 -6.93412C21.8539 -6.76372 24.9916 -5.87599 27.8206 -4.33585L5.8261 36.0652ZM16.2039 39.0015C19.8387 39.194 23.4707 38.5711 26.8339 37.1781L9.23127 -5.32068C12.2073 -6.55332 15.4212 -7.10451 18.6375 -6.93412L16.2039 39.0015ZM26.8339 37.1781C30.1969 35.7852 33.2057 33.6576 35.6399 30.9513L1.43897 0.189341C3.59292 -2.2054 6.25533 -4.08808 9.23127 -5.32068L26.8339 37.1781ZM35.6399 30.9513C38.0741 28.2449 39.8721 25.0283 40.9022 21.537L-3.21754 8.51984C-2.30603 5.43043 -0.714994 2.58411 1.43897 0.189341L35.6399 30.9513ZM40.9045 21.5294L40.975 21.2902L-3.14927 8.28816L-3.21977 8.52741L40.9045 21.5294ZM6 19.5C6 12.0442 12.0442 6 19.5 6V52C37.4493 52 52 37.4493 52 19.5H6ZM19.5 6C26.9558 6 33 12.0442 33 19.5H-13C-13 37.4493 1.55075 52 19.5 52V6ZM33 19.5C33 26.9558 26.9558 33 19.5 33V-13C1.55075 -13 -13 1.55075 -13 19.5H33ZM19.5 33C12.0442 33 6 26.9558 6 19.5H52C52 1.55075 37.4493 -13 19.5 -13V33ZM-9.4655 51.3176C-1.78959 58.5408 8.60955 63 20 63V17C20.7844 17 21.5417 17.3314 22.0587 17.8179L-9.4655 51.3176ZM20 63C30.7223 63 40.5788 59.0458 48.1027 52.5463L18.0324 17.7358C18.5464 17.2918 19.268 17 20 17V63ZM52.9887 23.6455C45.316 10.349 30.4165 6 19.5 6V52C19.4818 52 19.385 51.9989 19.2013 51.9602C19.0246 51.9229 18.6841 51.8331 18.2059 51.6128C17.4957 51.2854 15.0953 50.0138 13.1464 46.6366L52.9887 23.6455ZM19.5 6C8.9029 6 -4.6255 9.98069 -12.5906 21.4424L25.1838 47.693C23.2995 50.4045 21.2761 51.4079 20.6401 51.6814C20.2227 51.8608 19.9262 51.935 19.7684 51.9664C19.6052 51.9989 19.5181 52 19.5 52V6Z" fill="#0091A5" mask="url(#path-1-inside-1_333_117)"/>
</svg>
