<svg width="16" height="19" viewBox="0 0 16 19" fill="none" xmlns="http://www.w3.org/2000/svg">
<path d="M8.71428 16.4433V2.69951C8.71428 1.93703 7.89517 1.45506 7.22864 1.82536L1.51436 4.99996C1.19689 5.17633 1 5.51095 1 5.87412V13.2687C1 13.6319 1.19689 13.9665 1.51436 14.1429L7.22864 17.3175C7.89517 17.6878 8.71428 17.2058 8.71428 16.4433Z" stroke="#FEFEFE" stroke-width="2"/>
<rect x="15.5715" y="2.42859" width="4.04058" height="2.02029" rx="1.01014" transform="rotate(135 15.5715 2.42859)" fill="#FEFEFE"/>
<rect width="4.28571" height="1.71429" rx="0.857143" transform="matrix(-1 0 0 1 15.5715 9.03796)" fill="#FEFEFE"/>
<rect width="4.04058" height="2.02029" rx="1.01014" transform="matrix(-0.707107 -0.707107 -0.707107 0.707107 15.5715 17.5714)" fill="#FEFEFE"/>
</svg>
